<?xml version="1.0" standalone="no"?>
<!DOCTYPE svg PUBLIC "-//W3C//DTD SVG 1.1//EN" "http://www.w3.org/Graphics/SVG/1.1/DTD/svg11.dtd" >
<svg xmlns="http://www.w3.org/2000/svg" xmlns:xlink="http://www.w3.org/1999/xlink" version="1.1">
<metadata>
Created by FontForge 20170924 at Tue Dec  3 06:34:36 2019
 By root
Typeface by Chequered Ink. (c) 2019. All Rights Reserved
</metadata>
<defs>
<font id="ChinaFad" horiz-adv-x="1500" >
  <font-face 
    font-family="China Fad"
    font-weight="400"
    font-stretch="normal"
    units-per-em="2048"
    panose-1="2 0 5 0 0 0 0 0 0 0"
    ascent="1638"
    descent="-410"
    x-height="1400"
    cap-height="1400"
    bbox="65 -200 1400 1550"
    underline-thickness="150"
    underline-position="-292"
    unicode-range="U+0020-007E"
  />
    <missing-glyph />
    <glyph glyph-name="space" unicode=" " horiz-adv-x="508" 
 />
    <glyph glyph-name="space" unicode="&#xa0;" horiz-adv-x="508" 
 />
    <glyph glyph-name="exclam" unicode="!" horiz-adv-x="300" 
d="M200 0h-100v100h100v-100zM200 300h-100v1100h100v-1100z" />
    <glyph glyph-name="quotedbl" unicode="&#x22;" horiz-adv-x="500" 
d="M200 1000h-100v400h100v-400zM400 1000h-100v400h100v-400z" />
    <glyph glyph-name="numbersign" unicode="#" 
d="M400 400v600h-300v100h300v300h100v-300h500v300h100v-300h300v-100h-300v-600h300v-100h-300v-300h-100v300h-500v-300h-100v300h-300v100h300zM500 1000v-600h500v600h-500z" />
    <glyph glyph-name="dollar" unicode="$" 
d="M700 1400v150h100v-150h600v-300h-100v200h-500v-500h300q300 0 300 -300v-200q0 -300 -300 -300h-300v-150h-100v150h-300q-300 0 -300 300h100q0 -200 200 -200h300v600h-300q-300 0 -300 300v400h600zM800 100h300q200 0 200 200v200q0 200 -200 200h-300v-600z
M700 1300h-500v-300q0 -200 200 -200h300v500z" />
    <glyph glyph-name="percent" unicode="%" 
d="M350 1000q62 0 106 44t44 106t-44 106t-106 44t-106 -44t-44 -106t44 -106t106 -44zM1150 100q62 0 106 44t44 106t-44 106t-106 44t-106 -44t-44 -106t44 -106t106 -44zM200 500v-500h-100v500q0 300 300 300h700q200 0 200 200v400h100v-400q0 -300 -300 -300h-700
q-200 0 -200 -200zM1150 0q-104 0 -177 73t-73 177t73 177t177 73t177 -73t73 -177t-73 -177t-177 -73zM350 900q-104 0 -177 73t-73 177t73 177t177 73t177 -73t73 -177t-73 -177t-177 -73z" />
    <glyph glyph-name="ampersand" unicode="&#x26;" 
d="M900 100v600h-700v-400q0 -200 200 -200h500zM800 1400v-100h-600v-500h700v200h100v-200h400v-100h-400v-600h100q200 0 200 200h100q0 -300 -300 -300h-700q-300 0 -300 300v1100h700z" />
    <glyph glyph-name="quotesingle" unicode="'" horiz-adv-x="300" 
d="M200 1000h-100v400h100v-400z" />
    <glyph glyph-name="parenleft" unicode="(" horiz-adv-x="700" 
d="M600 1500v-100h-400v-1200q0 -200 200 -200h200v-100h-200q-300 0 -300 300v1300h500z" />
    <glyph glyph-name="parenright" unicode=")" horiz-adv-x="700" 
d="M100 1500h500v-1300q0 -300 -300 -300h-200v100h200q200 0 200 200v1200h-400v100z" />
    <glyph glyph-name="asterisk" unicode="*" horiz-adv-x="700" 
d="M300 1186v214h100v-214l185 107l50 -86l-185 -107l185 -107l-50 -86l-185 107v-214h-100v214l-185 -107l-50 86l185 107l-185 107l50 86z" />
    <glyph glyph-name="plus" unicode="+" horiz-adv-x="800" 
d="M350 700h-250v100h250v250h100v-250h250v-100h-250v-250h-100v250z" />
    <glyph glyph-name="comma" unicode="," horiz-adv-x="300" 
d="M200 -200h-100v300h100v-300z" />
    <glyph glyph-name="hyphen" unicode="-" horiz-adv-x="800" 
d="M100 700v100h600v-100h-600z" />
    <glyph glyph-name="hyphen" unicode="&#xad;" horiz-adv-x="800" 
d="M100 700v100h600v-100h-600z" />
    <glyph glyph-name="period" unicode="." horiz-adv-x="300" 
d="M200 0h-100v100h100v-100z" />
    <glyph glyph-name="slash" unicode="/" 
d="M200 500v-500h-100v500q0 300 300 300h700q200 0 200 200v400h100v-400q0 -300 -300 -300h-700q-200 0 -200 -200z" />
    <glyph glyph-name="zero" unicode="0" 
d="M1300 1300h-1100v-1200h1100v1200zM1400 1400v-1400h-1300v1400h1300z" />
    <glyph glyph-name="one" unicode="1" 
d="M700 1300h-600v100h700v-1300h600v-100h-1300v100h600v1200z" />
    <glyph glyph-name="two" unicode="2" 
d="M200 100h1200v-100h-1300v400q0 300 300 300h700q200 0 200 200v200q0 200 -200 200h-700q-200 0 -200 -200h-100q0 300 300 300h700q300 0 300 -300v-200q0 -300 -300 -300h-700q-200 0 -200 -200v-300z" />
    <glyph glyph-name="three" unicode="3" 
d="M1300 1300h-1200v100h1300v-1100q0 -300 -300 -300h-700q-300 0 -300 300h100q0 -200 200 -200h700q200 0 200 200v400h-1200v100h1200v500z" />
    <glyph glyph-name="four" unicode="4" 
d="M1300 500v-500h-100v500h-800q-300 0 -300 300v600h100v-600q0 -200 200 -200h800v800h100v-800h100v-100h-100z" />
    <glyph glyph-name="five" unicode="5" 
d="M1400 1400v-100h-1200v-300q0 -200 200 -200h700q300 0 300 -300v-200q0 -300 -300 -300h-700q-300 0 -300 300h100q0 -200 200 -200h700q200 0 200 200v200q0 200 -200 200h-700q-300 0 -300 300v400h1300z" />
    <glyph glyph-name="six" unicode="6" 
d="M400 100h700q200 0 200 200v400h-1100v-400q0 -200 200 -200zM1400 1400v-100h-1200v-500h1200v-500q0 -300 -300 -300h-700q-300 0 -300 300v1100h1300z" />
    <glyph glyph-name="seven" unicode="7" 
d="M200 500v-500h-100v500q0 300 300 300h700q200 0 200 200v300h-1100v-200h-100v300h1300v-400q0 -300 -300 -300h-700q-200 0 -200 -200z" />
    <glyph glyph-name="eight" unicode="8" 
d="M400 100h700q200 0 200 200v400h-1100v-400q0 -200 200 -200zM1400 1400v-1100q0 -300 -300 -300h-700q-300 0 -300 300v1100h1300zM1300 1300h-1100v-500h1100v500z" />
    <glyph glyph-name="nine" unicode="9" 
d="M1300 1300h-1100v-500h1100v500zM1400 1400v-1100q0 -300 -300 -300h-700q-300 0 -300 300h100q0 -200 200 -200h700q200 0 200 200v400h-1200v700h1300z" />
    <glyph glyph-name="colon" unicode=":" horiz-adv-x="300" 
d="M200 0h-100v100h100v-100zM200 924h-100v100h100v-100z" />
    <glyph glyph-name="semicolon" unicode=";" horiz-adv-x="300" 
d="M200 -200h-100v300h100v-300zM200 924h-100v100h100v-100z" />
    <glyph glyph-name="semicolon" unicode="&#x37e;" horiz-adv-x="300" 
d="M200 -200h-100v300h100v-300zM200 924h-100v100h100v-100z" />
    <glyph glyph-name="less" unicode="&#x3c;" horiz-adv-x="700" 
d="M600 1500v-100h-400v-1200q0 -200 200 -200h200v-100h-200q-300 0 -300 300v1300h500z" />
    <glyph glyph-name="equal" unicode="=" horiz-adv-x="800" 
d="M100 800v100h600v-100h-600zM100 500v100h600v-100h-600z" />
    <glyph glyph-name="greater" unicode="&#x3e;" horiz-adv-x="700" 
d="M100 1500h500v-1300q0 -300 -300 -300h-200v100h200q200 0 200 200v1200h-400v100z" />
    <glyph glyph-name="question" unicode="?" 
d="M400 100h100v-100h-100v100zM500 500v-200h-100v200q0 300 300 300h400q200 0 200 200v100q0 200 -200 200h-700q-200 0 -200 -200v-100h-100v100q0 300 300 300h700q300 0 300 -300v-100q0 -300 -300 -300h-400q-200 0 -200 -200z" />
    <glyph glyph-name="at" unicode="@" 
d="M1300 1300h-1100v-1200h200v1000h700v-1000h200v1200zM500 100h500v400h-500v-400zM500 600h500v400h-500v-400zM1400 1400v-1400h-1300v1400h1300z" />
    <glyph glyph-name="A" unicode="A" 
d="M1300 600h-1100v-600h-100v1400h1300v-1400h-100v600zM200 700h1100v600h-1100v-600z" />
    <glyph glyph-name="B" unicode="B" 
d="M200 800h900q200 0 200 200v300h-1100v-500zM100 1400h1300v-400q0 -178 -105 -250q105 -72 105 -250v-500h-1300v1400zM1100 700h-900v-600h1100v400q0 200 -200 200z" />
    <glyph glyph-name="C" unicode="C" 
d="M1000 1300h-900v100h1300v-100h-300q0 -300 -300 -300h-400q-200 0 -200 -200v-500q0 -200 200 -200h700q200 0 200 200h100q0 -300 -300 -300h-700q-300 0 -300 300v500q0 300 300 300h400q200 0 200 200z" />
    <glyph glyph-name="D" unicode="D" 
d="M1100 0h-700v100h700q200 0 200 200v800q0 200 -200 200h-900v-1300h-100v1400h1000q300 0 300 -300v-800q0 -300 -300 -300z" />
    <glyph glyph-name="E" unicode="E" 
d="M1400 1400v-100h-1200v-500h1200v-100h-1200v-400q0 -200 200 -200h700q200 0 200 200h100q0 -300 -300 -300h-700q-300 0 -300 300v1100h1300z" />
    <glyph glyph-name="F" unicode="F" 
d="M300 1300h-200v100h1300v-100h-1000v-500h1000v-100h-1000v-400q0 -300 -300 -300v100q200 0 200 200v400h-200v100h200v500z" />
    <glyph glyph-name="G" unicode="G" 
d="M400 1400h700v-100h-700q-200 0 -200 -200v-800q0 -200 200 -200h900v600h-600v100h700v-800h-1000q-300 0 -300 300v800q0 300 300 300z" />
    <glyph glyph-name="H" unicode="H" 
d="M200 700v-700h-100v1400h100v-600h1100v600h100v-1400h-100v700h-1100z" />
    <glyph glyph-name="I" unicode="I" 
d="M1300 1400v-100h-500v-1200h600v-100h-1300v100h600v1200h-500v100h1100z" />
    <glyph glyph-name="J" unicode="J" 
d="M800 1300h-700v100h1300v-100h-500q0 -200 200 -200q300 0 300 -300v-500q0 -300 -300 -300h-1000v100h1000q200 0 200 200v500q0 200 -200 200q-300 0 -300 300z" />
    <glyph glyph-name="K" unicode="K" 
d="M200 700v-700h-100v1400h100v-600h900q200 0 200 200v400h100v-400q0 -178 -105 -250q105 -72 105 -250v-500h-100v500q0 200 -200 200h-900z" />
    <glyph glyph-name="L" unicode="L" 
d="M1100 100q200 0 200 200h100q0 -300 -300 -300h-700q-300 0 -300 300v1100h100v-1100q0 -200 200 -200h700z" />
    <glyph glyph-name="M" unicode="M" 
d="M200 310v-310h-100v1400h100v-983q100 42 100 183v500q0 300 300 300q178 0 250 -105q72 105 250 105q300 0 300 -300v-1100h-100v1100q0 200 -200 200t-200 -200v-1100h-100v1100q0 200 -200 200t-200 -200v-500q0 -245 -200 -290z" />
    <glyph glyph-name="N" unicode="N" 
d="M200 300v-300h-100v1400h100v-1000q200 0 200 200v500q0 300 300 300h400q300 0 300 -300v-1100h-100v1100q0 200 -200 200h-400q-200 0 -200 -200v-500q0 -300 -300 -300z" />
    <glyph glyph-name="O" unicode="O" 
d="M1300 1300h-1100v-1200h1100v1200zM1400 1400v-1400h-1300v1400h1300z" />
    <glyph glyph-name="P" unicode="P" 
d="M200 400v-400h-100v400q0 300 300 300h900v600h-1100v-500h-100v600h1300v-800h-1000q-200 0 -200 -200z" />
    <glyph glyph-name="Q" unicode="Q" 
d="M1300 1300h-1100v-800h1100v800zM1400 1400v-1000h-900v-100q0 -200 200 -200h700v-100h-700q-300 0 -300 300v100h-300v1000h1300z" />
    <glyph glyph-name="R" unicode="R" 
d="M1300 1300h-1100v-500h1100v500zM1400 1400v-700h-500v-400q0 -200 200 -200h300v-100h-300q-300 0 -300 300v400h-600v-500h-100v1200h1300z" />
    <glyph glyph-name="S" unicode="S" 
d="M400 0q-300 0 -300 300h100q0 -200 200 -200h700q200 0 200 200v200q0 200 -200 200h-700q-300 0 -300 300v400h1300v-300h-100v200h-1100v-300q0 -200 200 -200h700q300 0 300 -300v-200q0 -300 -300 -300h-700z" />
    <glyph glyph-name="T" unicode="T" 
d="M800 1300v-1300h-100v1300h-600v100h1300v-100h-600z" />
    <glyph glyph-name="U" unicode="U" 
d="M1300 1100v300h100v-1400h-100v1000q-200 0 -200 -200v-500q0 -300 -300 -300h-400q-300 0 -300 300v1100h100v-1100q0 -200 200 -200h400q200 0 200 200v500q0 300 300 300z" />
    <glyph glyph-name="V" unicode="V" 
d="M1300 700v700h100v-700q0 -700 -700 -700h-600v1400h100v-1300h500q600 0 600 600z" />
    <glyph glyph-name="W" unicode="W" 
d="M1300 1090v310h100v-1400h-100v983q-100 -42 -100 -183v-500q0 -300 -300 -300q-178 0 -250 105q-72 -105 -250 -105q-300 0 -300 300v1100h100v-1100q0 -200 200 -200t200 200v1100h100v-1100q0 -200 200 -200t200 200v500q0 245 200 290z" />
    <glyph glyph-name="X" unicode="X" 
d="M1300 1000v400h100v-400q0 -178 -105 -250q105 -72 105 -250v-500h-100v500q0 200 -200 200h-700q-200 0 -200 -200v-500h-100v500q0 178 105 250q-105 72 -105 250v400h100v-400q0 -200 200 -200h700q200 0 200 200z" />
    <glyph glyph-name="Y" unicode="Y" 
d="M100 900v500h100v-500q0 -200 200 -200h700q200 0 200 200v500h100v-500q0 -300 -300 -300h-300v-600h-100v600h-300q-300 0 -300 300z" />
    <glyph glyph-name="Z" unicode="Z" 
d="M1300 1300h-1200v100h1300v-400q0 -300 -300 -300h-700q-200 0 -200 -200v-400h1200v-100h-1300v500q0 300 300 300h700q200 0 200 200v300z" />
    <glyph glyph-name="bracketleft" unicode="[" horiz-adv-x="700" 
d="M600 1500v-100h-400v-1400h400v-100h-500v1600h500z" />
    <glyph glyph-name="backslash" unicode="\" 
d="M1300 500q0 200 -200 200h-700q-300 0 -300 300v400h100v-400q0 -200 200 -200h700q300 0 300 -300v-500h-100v500z" />
    <glyph glyph-name="bracketright" unicode="]" horiz-adv-x="700" 
d="M100 1500h500v-1600h-500v100h400v1400h-400v100z" />
    <glyph glyph-name="asciicircum" unicode="^" horiz-adv-x="300" 
d="M200 1000h-100v400h100v-400z" />
    <glyph glyph-name="underscore" unicode="_" 
d="M100 0v100h1300v-100h-1300z" />
    <glyph glyph-name="grave" unicode="`" horiz-adv-x="300" 
d="M200 1000h-100v400h100v-400z" />
    <glyph glyph-name="a" unicode="a" 
d="M1300 600h-1100v-600h-100v1400h1300v-1400h-100v600zM200 700h1100v600h-1100v-600z" />
    <glyph glyph-name="b" unicode="b" 
d="M200 800h900q200 0 200 200v300h-1100v-500zM100 1400h1300v-400q0 -178 -105 -250q105 -72 105 -250v-500h-1300v1400zM1100 700h-900v-600h1100v400q0 200 -200 200z" />
    <glyph glyph-name="c" unicode="c" 
d="M1000 1300h-900v100h1300v-100h-300q0 -300 -300 -300h-400q-200 0 -200 -200v-500q0 -200 200 -200h700q200 0 200 200h100q0 -300 -300 -300h-700q-300 0 -300 300v500q0 300 300 300h400q200 0 200 200z" />
    <glyph glyph-name="d" unicode="d" 
d="M1100 0h-700v100h700q200 0 200 200v800q0 200 -200 200h-900v-1300h-100v1400h1000q300 0 300 -300v-800q0 -300 -300 -300z" />
    <glyph glyph-name="e" unicode="e" 
d="M1400 1400v-100h-1200v-500h1200v-100h-1200v-400q0 -200 200 -200h700q200 0 200 200h100q0 -300 -300 -300h-700q-300 0 -300 300v1100h1300z" />
    <glyph glyph-name="f" unicode="f" 
d="M300 1300h-200v100h1300v-100h-1000v-500h1000v-100h-1000v-400q0 -300 -300 -300v100q200 0 200 200v400h-200v100h200v500z" />
    <glyph glyph-name="g" unicode="g" 
d="M400 1400h700v-100h-700q-200 0 -200 -200v-800q0 -200 200 -200h900v600h-600v100h700v-800h-1000q-300 0 -300 300v800q0 300 300 300z" />
    <glyph glyph-name="h" unicode="h" 
d="M200 700v-700h-100v1400h100v-600h1100v600h100v-1400h-100v700h-1100z" />
    <glyph glyph-name="i" unicode="i" 
d="M1300 1400v-100h-500v-1200h600v-100h-1300v100h600v1200h-500v100h1100z" />
    <glyph glyph-name="j" unicode="j" 
d="M800 1300h-700v100h1300v-100h-500q0 -200 200 -200q300 0 300 -300v-500q0 -300 -300 -300h-1000v100h1000q200 0 200 200v500q0 200 -200 200q-300 0 -300 300z" />
    <glyph glyph-name="k" unicode="k" 
d="M200 700v-700h-100v1400h100v-600h900q200 0 200 200v400h100v-400q0 -178 -105 -250q105 -72 105 -250v-500h-100v500q0 200 -200 200h-900z" />
    <glyph glyph-name="l" unicode="l" 
d="M1100 100q200 0 200 200h100q0 -300 -300 -300h-700q-300 0 -300 300v1100h100v-1100q0 -200 200 -200h700z" />
    <glyph glyph-name="m" unicode="m" 
d="M200 310v-310h-100v1400h100v-983q100 42 100 183v500q0 300 300 300q178 0 250 -105q72 105 250 105q300 0 300 -300v-1100h-100v1100q0 200 -200 200t-200 -200v-1100h-100v1100q0 200 -200 200t-200 -200v-500q0 -245 -200 -290z" />
    <glyph glyph-name="n" unicode="n" 
d="M200 300v-300h-100v1400h100v-1000q200 0 200 200v500q0 300 300 300h400q300 0 300 -300v-1100h-100v1100q0 200 -200 200h-400q-200 0 -200 -200v-500q0 -300 -300 -300z" />
    <glyph glyph-name="o" unicode="o" 
d="M1300 1300h-1100v-1200h1100v1200zM1400 1400v-1400h-1300v1400h1300z" />
    <glyph glyph-name="p" unicode="p" 
d="M200 400v-400h-100v400q0 300 300 300h900v600h-1100v-500h-100v600h1300v-800h-1000q-200 0 -200 -200z" />
    <glyph glyph-name="q" unicode="q" 
d="M1300 1300h-1100v-800h1100v800zM1400 1400v-1000h-900v-100q0 -200 200 -200h700v-100h-700q-300 0 -300 300v100h-300v1000h1300z" />
    <glyph glyph-name="r" unicode="r" 
d="M1300 1300h-1100v-500h1100v500zM1400 1400v-700h-500v-400q0 -200 200 -200h300v-100h-300q-300 0 -300 300v400h-600v-500h-100v1200h1300z" />
    <glyph glyph-name="s" unicode="s" 
d="M400 0q-300 0 -300 300h100q0 -200 200 -200h700q200 0 200 200v200q0 200 -200 200h-700q-300 0 -300 300v400h1300v-300h-100v200h-1100v-300q0 -200 200 -200h700q300 0 300 -300v-200q0 -300 -300 -300h-700z" />
    <glyph glyph-name="t" unicode="t" 
d="M800 1300v-1300h-100v1300h-600v100h1300v-100h-600z" />
    <glyph glyph-name="u" unicode="u" 
d="M1300 1100v300h100v-1400h-100v1000q-200 0 -200 -200v-500q0 -300 -300 -300h-400q-300 0 -300 300v1100h100v-1100q0 -200 200 -200h400q200 0 200 200v500q0 300 300 300z" />
    <glyph glyph-name="v" unicode="v" 
d="M1300 700v700h100v-700q0 -700 -700 -700h-600v1400h100v-1300h500q600 0 600 600z" />
    <glyph glyph-name="w" unicode="w" 
d="M1300 1090v310h100v-1400h-100v983q-100 -42 -100 -183v-500q0 -300 -300 -300q-178 0 -250 105q-72 -105 -250 -105q-300 0 -300 300v1100h100v-1100q0 -200 200 -200t200 200v1100h100v-1100q0 -200 200 -200t200 200v500q0 245 200 290z" />
    <glyph glyph-name="x" unicode="x" 
d="M1300 1000v400h100v-400q0 -178 -105 -250q105 -72 105 -250v-500h-100v500q0 200 -200 200h-700q-200 0 -200 -200v-500h-100v500q0 178 105 250q-105 72 -105 250v400h100v-400q0 -200 200 -200h700q200 0 200 200z" />
    <glyph glyph-name="y" unicode="y" 
d="M100 900v500h100v-500q0 -200 200 -200h700q200 0 200 200v500h100v-500q0 -300 -300 -300h-300v-600h-100v600h-300q-300 0 -300 300z" />
    <glyph glyph-name="z" unicode="z" 
d="M1300 1300h-1200v100h1300v-400q0 -300 -300 -300h-700q-200 0 -200 -200v-400h1200v-100h-1300v500q0 300 300 300h700q200 0 200 200v300z" />
    <glyph glyph-name="braceleft" unicode="{" horiz-adv-x="800" 
d="M300 800v700h400v-100h-300v-1200q0 -200 200 -200h100v-100h-100q-300 0 -300 300v500h-200v100h200z" />
    <glyph glyph-name="bar" unicode="|" horiz-adv-x="300" 
d="M200 -100h-100v1600h100v-1600z" />
    <glyph glyph-name="braceright" unicode="}" horiz-adv-x="800" 
d="M500 800h200v-100h-200v-500q0 -300 -300 -300h-100v100h100q200 0 200 200v1200h-300v100h400v-700z" />
    <glyph glyph-name="asciitilde" unicode="~" horiz-adv-x="800" 
d="M100 700v100h600v-100h-600z" />
  </font>
</defs>
</svg>
